<svg width="20" height="20" viewBox="0 0 20 20" fill="none" xmlns="http://www.w3.org/2000/svg">
<g clip-path="url(#clip0_59_5085)">
<path fill-rule="evenodd" clip-rule="evenodd" d="M1.66675 2.50002C1.66675 2.03978 2.03984 1.66669 2.50008 1.66669H17.5001C17.9603 1.66669 18.3334 2.03978 18.3334 2.50002V4.65484C18.3334 5.09687 18.1578 5.52079 17.8453 5.83335L12.5001 11.1785V15.8334C12.5001 16.149 12.3217 16.4376 12.0394 16.5787L8.70609 18.2454C8.44777 18.3745 8.14099 18.3607 7.89531 18.2089C7.64963 18.0571 7.50008 17.7888 7.50008 17.5V11.1785L2.1549 5.83335C1.84234 5.52079 1.66675 5.09687 1.66675 4.65484V2.50002ZM3.33341 3.33335V4.65484L8.92267 10.2441C9.07895 10.4004 9.16675 10.6123 9.16675 10.8334V16.1517L10.8334 15.3183V10.8334C10.8334 10.6123 10.9212 10.4004 11.0775 10.2441L16.6667 4.65484V3.33335H3.33341Z" fill="#8A8A8A"/>
</g>
<defs>
<clipPath id="clip0_59_5085">
<rect width="16.6667" height="16.6667" fill="white" transform="translate(1.66675 1.66669)"/>
</clipPath>
</defs>
</svg>
